<svg version="1.0" xmlns="http://www.w3.org/2000/svg"
 width="512.000000pt" height="512.000000pt" viewBox="0 0 512.000000 512.000000"
 preserveAspectRatio="xMidYMid meet">
<g transform="translate(0.000000,512.000000) scale(0.100000,-0.100000)"
fill="#000000" stroke="none">
<path d="M1282 3758 l4 -423 27 -80 c85 -254 295 -428 545 -452 l62 -6 0 412
0 411 433 0 c460 0 508 -4 599 -51 62 -32 137 -107 168 -169 39 -79 51 -141
51 -255 0 -264 -135 -424 -381 -455 -47 -5 -279 -10 -523 -10 -495 0 -502 -1
-642 -73 -108 -56 -206 -154 -262 -262 -79 -153 -76 -126 -80 -802 l-4 -603
320 0 321 0 0 595 0 595 504 0 c536 0 606 4 741 47 324 102 551 343 635 675
81 314 24 682 -142 926 -119 175 -312 306 -543 369 l-100 28 -868 3 -868 3 3
-423z"/>
</g>
</svg>
